<svg width="24" height="24" viewBox="0 0 24 24" fill="none" xmlns="http://www.w3.org/2000/svg">
<path d="M2.0458 0.800781H21.9678C22.6538 0.800781 23.1998 1.34678 23.1998 2.03278V21.9688C23.1998 22.6408 22.6538 23.2008 21.9678 23.2008H16.2558V14.5208H19.1678L19.6018 11.1468H16.2558V8.99078C16.2558 8.01078 16.5358 7.33878 17.9358 7.33878H19.7278V4.31478C19.4198 4.27278 18.3558 4.18878 17.1238 4.18878C14.5338 4.18878 12.7698 5.75678 12.7698 8.65478V11.1468H9.8438V14.5208H12.7698V23.2008H2.0458C1.71776 23.2008 1.40293 23.0714 1.16966 22.8408C0.936391 22.6101 0.803491 22.2968 0.799805 21.9688V2.03278C0.799805 1.34678 1.3598 0.800781 2.0458 0.800781Z" fill="#037EFF"/>
</svg>
