<svg width="60" height="60" viewBox="0 0 60 60" fill="none" xmlns="http://www.w3.org/2000/svg">
<path d="M30.0011 53.999C29.0303 53.999 28.2433 53.212 28.2433 52.2412L28.2432 36.9141C28.2432 35.9433 29.0302 35.1562 30.001 35.1562C30.9718 35.1562 31.7589 35.9433 31.7589 36.9141L31.759 52.2412C31.759 53.212 30.9719 53.999 30.0011 53.999Z" fill="url(#paint0_linear)"/>
<path d="M30.0004 38.6725C40.6624 38.6725 49.3366 29.9982 49.3366 19.3362C49.3366 8.67424 40.6624 0 30.0004 0C19.3384 0 10.6641 8.67424 10.6641 19.3362C10.6641 29.9982 19.3384 38.6725 30.0004 38.6725ZM53.3985 37.2941C53.0108 36.8417 52.4213 36.6164 51.8297 36.696C51.2853 36.7691 38.4301 38.5481 32.2811 43.8186C31.3178 44.6443 30.5733 45.5051 30.0002 46.3692C29.4272 45.505 28.6827 44.6443 27.7194 43.8186C21.5703 38.548 8.71514 36.7691 8.1708 36.696C7.57958 36.6164 6.98976 36.8419 6.60198 37.2941C6.2142 37.7465 6.0819 38.3645 6.25077 38.9359C6.40628 39.4626 10.1304 51.8946 16.2795 57.1651C18.8423 59.3618 21.4144 59.9999 23.5382 59.9999C24.3572 59.9999 25.1099 59.9048 25.7692 59.7678C28.0363 59.2964 29.6075 58.2642 30.0001 57.9867C30.3927 58.2642 31.964 59.2964 34.231 59.7678C34.8904 59.905 35.6428 59.9999 36.4621 59.9999C38.5858 59.9999 41.1582 59.3614 43.7208 57.1651C49.8698 51.8946 53.594 39.4626 53.7495 38.9359C53.9186 38.3645 53.7863 37.7466 53.3985 37.2941Z" fill="url(#paint1_linear)"/>
<path d="M35.1981 19.2169C34.223 18.4858 33.0387 17.9822 31.758 17.7412V12.5785C33.1185 13.0182 34.1017 13.9356 34.1017 14.9415C34.1017 15.9123 34.8888 16.6994 35.8596 16.6994C36.8304 16.6994 37.6174 15.9123 37.6174 14.9415C37.6174 13.2261 36.7357 11.581 35.1981 10.4277C34.223 9.6966 33.0387 9.19304 31.758 8.95198V8.78909C31.758 7.81829 30.9709 7.03125 30.0001 7.03125C29.0293 7.03125 28.2423 7.81829 28.2423 8.78909V8.9521C26.9615 9.19316 25.7771 9.69672 24.8022 10.4279C23.2647 11.581 22.3828 13.2262 22.3828 14.9416C22.3828 16.6571 23.2645 18.3022 24.8022 19.4554C25.7772 20.1866 26.9615 20.6901 28.2423 20.9312V26.0938C26.8817 25.6541 25.8985 24.7368 25.8985 23.7308C25.8985 22.76 25.1114 21.973 24.1407 21.973C23.1699 21.973 22.3828 22.76 22.3828 23.7308C22.3828 25.4463 23.2645 27.0914 24.8022 28.2446C25.7772 28.9758 26.9615 29.4793 28.2423 29.7204V29.8832C28.2423 30.854 29.0293 31.641 30.0001 31.641C30.9709 31.641 31.758 30.854 31.758 29.8832V29.7201C33.0387 29.4791 34.2232 28.9755 35.1981 28.2444C36.7356 27.0912 37.6174 25.446 37.6174 23.7306C37.6174 22.0152 36.7356 20.3702 35.1981 19.2169ZM28.2422 17.3045C26.8816 16.8648 25.8984 15.9475 25.8984 14.9415C25.8984 13.9356 26.8816 13.0183 28.2422 12.5785V17.3045ZM31.7578 26.0937V21.3678C33.1184 21.8075 34.1016 22.7249 34.1016 23.7308C34.1016 24.7368 33.1184 25.6539 31.7578 26.0937Z" fill="url(#paint2_linear)"/>
<defs>
<linearGradient id="paint0_linear" x1="30.0011" y1="53.999" x2="30.0011" y2="35.1562" gradientUnits="userSpaceOnUse">
<stop stop-color="#C3FFE8"/>
<stop offset="0.9973" stop-color="#F0FFF4"/>
</linearGradient>
<linearGradient id="paint1_linear" x1="30.0004" y1="60" x2="30.0004" y2="0" gradientUnits="userSpaceOnUse">
<stop stop-color="#00B59C"/>
<stop offset="1" stop-color="#9CFFAC"/>
</linearGradient>
<linearGradient id="paint2_linear" x1="30" y1="31.641" x2="30" y2="7.03125" gradientUnits="userSpaceOnUse">
<stop stop-color="#9BFF9D"/>
<stop offset="0.9973" stop-color="#E2FFEA"/>
<stop offset="1" stop-color="#E2FFEA"/>
</linearGradient>
</defs>
</svg>
