<svg width="60" height="60" viewBox="0 0 60 60" fill="none" xmlns="http://www.w3.org/2000/svg">
<path d="M30 60C22.0179 60 14.4928 56.8709 8.81098 51.189C3.12914 45.5072 0 37.9821 0 30C0 25.9424 0.805781 22.0012 2.3952 18.2859C2.68242 17.6146 3.35531 17.1898 4.08434 17.2211C4.81395 17.2514 5.44875 17.7295 5.67926 18.4223L7.22531 23.0691L10.1061 24.9896L10.6726 19.2796C10.7323 18.6789 11.0959 18.1507 11.6359 17.8808L18.1126 14.6435L19.6656 11.2249C19.8539 10.8104 20.1956 10.4851 20.6189 10.3175L23.5239 9.16746L18.3164 5.24824C17.8112 4.86797 17.5492 4.24582 17.6302 3.61875C17.711 2.99168 18.1226 2.45637 18.7078 2.21695C22.3025 0.745898 26.1019 0 30 0C40.8096 0 50.8373 5.89172 56.1697 15.3761C56.4253 15.8305 56.4659 16.3751 56.2805 16.8625C56.0951 17.3498 55.7029 17.7298 55.2098 17.8996L48.9966 20.0394C48.7199 20.1347 48.4236 20.1595 48.1351 20.1112L42.3156 19.1409C41.8365 19.061 41.4118 18.7864 41.1423 18.3824L40.0796 16.7891L33.3932 20.2977L37.4375 21.2585C37.8795 21.3635 38.2635 21.6354 38.5093 22.0173L40.4909 25.0956L43.1473 24.4311C43.6277 24.3108 44.1367 24.399 44.5487 24.6737L47.4585 26.6132C47.9476 26.9392 48.2414 27.4881 48.2414 28.0759V31.2684L53.3895 36.843C53.6893 37.1678 53.8559 37.5936 53.8559 38.0357V47.5361C53.8559 47.9338 53.721 48.3198 53.4732 48.6309C50.7185 52.0911 47.1766 54.9529 43.2305 56.907C39.0857 58.9593 34.6342 60 30 60Z" fill="url(#paint0_linear)"/>
<path d="M56.1699 15.3755C55.7536 14.6357 54.8682 14.2991 54.0656 14.5755L48.2739 16.5702L43.6451 15.7984L42.1269 13.5219C41.6279 12.7735 40.6442 12.5227 39.8477 12.9406L27.6028 19.366C26.9536 19.7067 26.584 20.4144 26.6754 21.1418C26.7669 21.8691 27.3001 22.4634 28.0133 22.6329L35.9368 24.5154L38.2172 28.0581C38.6249 28.6914 39.391 28.9948 40.1219 28.8118L43.2465 28.0302L44.7262 29.0165V31.9557C44.7262 32.3977 44.8927 32.8236 45.1926 33.1483L50.3406 38.7229V47.5359C50.3406 48.2832 50.813 48.9487 51.5185 49.1953C51.7086 49.2617 51.9043 49.2938 52.0981 49.2938C52.6233 49.2938 53.1335 49.0579 53.4735 48.6309C55.5434 46.0315 57.156 43.1375 58.2667 40.0292C59.4172 36.8101 60.0004 33.4358 60.0004 30C60.0004 24.8865 58.6758 19.8295 56.1699 15.3755ZM29.3703 33.0036L23.8809 31.9053L19.2472 26.8088C18.9086 26.4364 18.4267 26.2284 17.9233 26.2337L13.5103 26.292L14.0758 20.5918L20.2419 17.5098C20.6022 17.3297 20.8897 17.0313 21.0563 16.6645L22.5734 13.3251L27.7331 11.2824C28.3243 11.0484 28.743 10.5132 28.8281 9.88309C28.9131 9.25297 28.6511 8.6259 28.1431 8.24363L20.431 2.43934C19.9359 2.06668 19.2812 1.98219 18.7076 2.21715C11.4308 5.19758 5.48513 11.0547 2.39525 18.2867C2.2265 18.6816 2.20822 19.1247 2.34381 19.5323L4.08053 24.7518C4.20404 25.1231 4.44791 25.4424 4.77345 25.6595L9.809 29.0165V32.7879C9.809 33.2456 9.98748 33.6853 10.3067 34.0134L14.6594 38.4891V43.4566C14.6594 43.8678 14.8035 44.266 15.0669 44.5818L19.9161 50.4014C20.2566 50.8101 20.755 51.0339 21.2668 51.0339C21.4669 51.0339 21.6692 50.9997 21.8648 50.9289C22.5606 50.677 23.0242 50.0162 23.0242 49.2761V45.3058L26.2011 42.9234C26.6437 42.5914 26.9042 42.0704 26.9042 41.5172V39.3354L30.2684 35.9701C30.7267 35.5116 30.8955 34.8383 30.7076 34.2179C30.5199 33.5974 30.0059 33.1309 29.3703 33.0036Z" fill="url(#paint1_linear)"/>
<defs>
<linearGradient id="paint0_linear" x1="28.1977" y1="60" x2="28.1977" y2="0" gradientUnits="userSpaceOnUse">
<stop stop-color="#5558FF"/>
<stop offset="1" stop-color="#00C0FF"/>
</linearGradient>
<linearGradient id="paint1_linear" x1="31.1272" y1="51.0341" x2="31.1272" y2="2.0859" gradientUnits="userSpaceOnUse">
<stop stop-color="#ADDCFF"/>
<stop offset="1" stop-color="#E1F2FF"/>
</linearGradient>
</defs>
</svg>
