<svg width="60" height="60" viewBox="0 0 60 60" fill="none" xmlns="http://www.w3.org/2000/svg">
<path d="M1.75781 10.6641C0.77332 10.6641 0 11.4374 0 12.4219V54.6094C0 55.5939 0.77332 56.3672 1.75781 56.3672H58.2422C59.2267 56.3672 60 55.5939 60 54.6094V12.4219C60 11.4374 59.2267 10.6641 58.2422 10.6641H1.75781Z" fill="url(#paint0_linear)"/>
<path d="M24.7266 31.7578C24.7266 27.88 21.5732 24.7266 17.6953 24.7266C13.8175 24.7266 10.6641 27.88 10.6641 31.7578C10.6641 35.6357 13.8175 38.7891 17.6953 38.7891C21.5732 38.7891 24.7266 35.6357 24.7266 31.7578ZM31.7578 30C31.7578 30.9716 32.544 31.7578 33.5156 31.7578H51.0938C52.0654 31.7578 52.8516 30.9716 52.8516 30C52.8516 29.0284 52.0654 28.2422 51.0938 28.2422H33.5156C32.544 28.2422 31.7578 29.0284 31.7578 30ZM51.0938 35.2734H33.5156C32.544 35.2734 31.7578 36.0596 31.7578 37.0312C31.7578 38.0029 32.544 38.7891 33.5156 38.7891H51.0938C52.0654 38.7891 52.8516 38.0029 52.8516 37.0312C52.8516 36.0596 52.0654 35.2734 51.0938 35.2734ZM47.5781 42.3047H37.0312C36.0596 42.3047 35.2734 43.0909 35.2734 44.0625C35.2734 45.0341 36.0596 45.8203 37.0312 45.8203H47.5781C48.5497 45.8203 49.3359 45.0341 49.3359 44.0625C49.3359 43.0909 48.5497 42.3047 47.5781 42.3047ZM19.4531 38.7891H17.6953H15.9375C11.0914 38.7891 7.14844 42.7321 7.14844 47.5781C7.14844 48.5497 7.93465 49.3359 8.90625 49.3359H26.4844C27.456 49.3359 28.2422 48.5497 28.2422 47.5781C28.2422 42.7321 24.2992 38.7891 19.4531 38.7891ZM22.9688 21.2109H37.0312C38.0157 21.2109 38.7891 20.4376 38.7891 19.4531C38.7891 18.4686 38.0157 17.6953 37.0312 17.6953H35.2734V5.39062C35.2734 4.40613 34.5001 3.63281 33.5156 3.63281H26.4844C25.4999 3.63281 24.7266 4.40613 24.7266 5.39062V17.6953H22.9688C21.9843 17.6953 21.2109 18.4686 21.2109 19.4531C21.2109 20.4376 21.9843 21.2109 22.9688 21.2109Z" fill="url(#paint1_linear)"/>
<defs>
<linearGradient id="paint0_linear" x1="30" y1="56.3672" x2="30" y2="10.6641" gradientUnits="userSpaceOnUse">
<stop stop-color="#FD5900"/>
<stop offset="1" stop-color="#FFDE00"/>
</linearGradient>
<linearGradient id="paint1_linear" x1="30.0001" y1="49.3359" x2="30.0001" y2="3.63281" gradientUnits="userSpaceOnUse">
<stop stop-color="#FFE59A"/>
<stop offset="1" stop-color="#FFF7B0"/>
</linearGradient>
</defs>
</svg>
