<svg width="28" height="28" viewBox="0 0 28 28" fill="none" xmlns="http://www.w3.org/2000/svg">
<path fill-rule="evenodd" clip-rule="evenodd" d="M25.755 15.8943C26.5361 9.87238 25.38 6.07086 23.2939 4.35111L23.2949 4.35017C19.9287 1.41368 8.55893 0.97906 4.5314 4.48225C2.72257 6.19544 2.08558 8.71042 2.01545 11.8235C1.94578 14.9379 1.86276 20.7716 7.79837 22.3541H7.80362L7.79837 24.7712C7.79837 24.7712 7.75781 25.7505 8.44108 25.9472C9.17654 26.1655 9.53296 25.7751 11.6004 23.5102C11.7286 23.3698 11.8634 23.2221 12.0053 23.0669C16.0677 23.3896 19.1877 22.6501 19.5427 22.5424C19.616 22.5199 19.7199 22.4949 19.8488 22.4638C21.1617 22.1477 25.0716 21.2064 25.755 15.8943ZM18.5283 11.5451C18.5455 9.57765 16.8378 7.77361 14.7222 7.52398C14.6802 7.5193 14.6344 7.51181 14.5857 7.50385L14.5857 7.50384L14.5789 7.50274C14.476 7.48622 14.3701 7.46919 14.2632 7.46919C13.8294 7.46919 13.7135 7.76799 13.683 7.94642C13.6534 8.11971 13.6815 8.26536 13.7669 8.37917C13.9106 8.57072 14.163 8.60491 14.3662 8.63207C14.4259 8.64004 14.4817 8.64753 14.5289 8.65783C16.4299 9.07466 17.0697 9.73033 17.3827 11.5803C17.39 11.6239 17.3934 11.6765 17.397 11.7332V11.7332L17.3975 11.7404L17.3975 11.7413C17.4114 11.9627 17.4401 12.4219 17.9433 12.4219C17.9853 12.4219 18.0302 12.4181 18.0774 12.4111C18.5469 12.3413 18.5321 11.9208 18.525 11.7184L18.5249 11.715C18.523 11.6592 18.5213 11.6072 18.5259 11.5718C18.5278 11.5634 18.5283 11.5545 18.5283 11.5451ZM14.2942 6.81624C14.2498 6.80968 14.1964 6.80547 14.1401 6.80172C13.9067 6.78533 13.422 6.75067 13.4506 6.25751C13.463 6.04488 13.5603 5.68754 14.0723 5.68754C14.1245 5.68754 14.1758 5.69092 14.2223 5.69399L14.2384 5.69503L14.245 5.69548L14.245 5.69548C14.2841 5.69814 14.3212 5.70065 14.3514 5.70065C14.3715 5.70065 14.3834 5.69972 14.3896 5.69878C14.4025 5.69738 14.4154 5.69644 14.4287 5.69691C17.6432 5.80322 20.4283 8.66712 20.3887 11.8251C20.3878 11.8657 20.3899 11.9114 20.3922 11.9602L20.3925 11.9675L20.3925 11.9678C20.4021 12.1776 20.4139 12.4378 20.2432 12.6134C20.1453 12.714 20.0084 12.7651 19.8362 12.7651H19.819C19.2698 12.7548 19.2617 12.2527 19.2579 12.0115L19.2576 11.9989C19.2563 11.9357 19.2551 11.8762 19.2488 11.827C18.8513 8.73924 17.4156 7.28739 14.2942 6.81624ZM19.098 15.8177C19.0317 15.7681 18.963 15.7165 18.8985 15.6655C18.5579 15.3962 18.1952 15.148 17.8445 14.9082L17.6265 14.7588C17.1775 14.4492 16.7734 14.2984 16.3921 14.2984C15.8783 14.2984 15.4302 14.5771 15.0604 15.1264C14.8968 15.37 14.6978 15.4885 14.453 15.4885C14.308 15.4885 14.1439 15.4477 13.964 15.3676C12.514 14.7223 11.479 13.7327 10.8869 12.4269C10.6006 11.7956 10.6937 11.383 11.197 11.0472L11.1978 11.0467C11.4838 10.856 12.0153 10.5015 11.9776 9.82249C11.9347 9.05113 10.2008 6.73004 9.47028 6.46636C9.16109 6.3549 8.83616 6.35349 8.50264 6.46355C7.66288 6.74081 7.06025 7.22741 6.75965 7.87091C6.46908 8.49287 6.48244 9.22301 6.79782 9.98266C7.70916 12.1787 8.99028 14.0933 10.6063 15.6735C12.1881 17.2199 14.1319 18.4872 16.384 19.4389C16.5866 19.5245 16.7996 19.5714 16.9551 19.6055L16.9556 19.6056L16.9777 19.6105C17.0213 19.6201 17.0591 19.6284 17.0878 19.6361C17.1059 19.6408 17.125 19.6436 17.1441 19.6436H17.1618C18.221 19.6436 19.4931 18.6933 19.8834 17.6105C20.225 16.6635 19.6004 16.1947 19.098 15.8177ZM14.607 9.31076L14.6082 9.31073C15.0887 9.29902 15.6173 9.54536 16.0554 9.98279C16.4919 10.4183 16.7491 10.9654 16.7434 11.4473C16.7591 11.9091 16.5874 12.1643 16.2338 12.2055C16.2119 12.2079 16.1899 12.2093 16.168 12.2093C15.8741 12.2093 15.645 11.976 15.6111 11.6421C15.5381 10.926 15.1731 10.5406 14.4627 10.4287C14.2666 10.3977 14.0514 10.3415 13.9388 10.157C13.8624 10.031 13.8548 9.87788 13.9168 9.70179C14.0492 9.32516 14.4252 9.31545 14.607 9.31076Z" fill="#8673FB"/>
</svg>
