<svg width="60" height="60" viewBox="0 0 60 60" fill="none" xmlns="http://www.w3.org/2000/svg">
<g clip-path="url(#clip0)">
<path d="M24.6094 60C11.0398 60 0 48.9604 0 35.3906C0 21.8209 11.0398 10.7812 24.6094 10.7812C38.179 10.7812 49.2188 21.821 49.2188 35.3906C49.2188 48.9602 38.179 60 24.6094 60Z" fill="url(#paint0_linear)"/>
<path d="M24.6094 52.9688C14.9168 52.9688 7.03125 45.0832 7.03125 35.3906C7.03125 25.698 14.9168 17.8125 24.6094 17.8125C34.302 17.8125 42.1875 25.698 42.1875 35.3906C42.1875 45.0832 34.302 52.9688 24.6094 52.9688Z" fill="url(#paint1_linear)"/>
<path d="M24.6094 45.9375C18.7938 45.9375 14.0625 41.2062 14.0625 35.3906C14.0625 29.5751 18.7938 24.8438 24.6094 24.8438C30.4249 24.8438 35.1562 29.5751 35.1562 35.3906C35.1562 41.2062 30.4249 45.9375 24.6094 45.9375Z" fill="url(#paint2_linear)"/>
<path d="M59.8661 8.11633C59.594 7.4595 58.9531 7.03118 58.2422 7.03118H52.9687V1.75774C52.9687 1.04676 52.5405 0.405748 51.8836 0.133756C51.227 -0.138119 50.4706 0.0121154 49.9679 0.51485L42.9366 7.5461C42.607 7.87575 42.4218 8.32282 42.4218 8.78899V15.0922L23.3664 34.1477C22.6799 34.8341 22.6799 35.9471 23.3664 36.6336C24.0529 37.32 25.166 37.3199 25.8523 36.6336L44.9077 17.5781H51.2109C51.6772 17.5781 52.1243 17.3928 52.4538 17.0631L59.485 10.0319C59.9878 9.52926 60.1382 8.77317 59.8661 8.11633Z" fill="url(#paint3_linear)"/>
</g>
<defs>
<linearGradient id="paint0_linear" x1="24.6094" y1="60" x2="24.6094" y2="10.7812" gradientUnits="userSpaceOnUse">
<stop stop-color="#FD3A84"/>
<stop offset="1" stop-color="#FFA68D"/>
</linearGradient>
<linearGradient id="paint1_linear" x1="24.6094" y1="52.9688" x2="24.6094" y2="17.8125" gradientUnits="userSpaceOnUse">
<stop stop-color="#FFC2CC"/>
<stop offset="1" stop-color="#FFF2F4"/>
</linearGradient>
<linearGradient id="paint2_linear" x1="24.6094" y1="45.9375" x2="24.6094" y2="24.8438" gradientUnits="userSpaceOnUse">
<stop stop-color="#FD3A84"/>
<stop offset="1" stop-color="#FFA68D"/>
</linearGradient>
<linearGradient id="paint3_linear" x1="41.4257" y1="37.1484" x2="41.4257" y2="-7.30692e-05" gradientUnits="userSpaceOnUse">
<stop stop-color="#FFC2CC"/>
<stop offset="1" stop-color="#FFF2F4"/>
</linearGradient>
<clipPath id="clip0">
<rect width="60" height="60" fill="white"/>
</clipPath>
</defs>
</svg>
