<svg width="29" height="28" viewBox="0 0 29 28" fill="none" xmlns="http://www.w3.org/2000/svg">
<path d="M3.0732 11V1.77H6.9472C7.3632 1.77 7.74454 1.85667 8.0912 2.03C8.44654 2.20333 8.74987 2.433 9.0012 2.719C9.25254 2.99633 9.44754 3.317 9.5862 3.681C9.73354 4.03633 9.8072 4.40033 9.8072 4.773C9.8072 5.163 9.73787 5.54 9.5992 5.904C9.4692 6.25933 9.28287 6.58 9.0402 6.866C8.79754 7.14333 8.50287 7.36867 8.1562 7.542C7.8182 7.70667 7.4412 7.789 7.0252 7.789H4.5292V11H3.0732ZM4.5292 6.502H6.9342C7.1422 6.502 7.32854 6.45867 7.4932 6.372C7.66654 6.28533 7.81387 6.164 7.9352 6.008C8.05654 5.852 8.15187 5.67 8.2212 5.462C8.29054 5.254 8.3252 5.02433 8.3252 4.773C8.3252 4.513 8.2862 4.279 8.2082 4.071C8.1302 3.863 8.02187 3.68533 7.8832 3.538C7.74454 3.382 7.5842 3.265 7.4022 3.187C7.22887 3.10033 7.04687 3.057 6.8562 3.057H4.5292V6.502ZM11.1728 11V1.77H14.4488C15.1941 1.77 15.8441 1.89133 16.3988 2.134C16.9621 2.37667 17.4301 2.706 17.8028 3.122C18.1841 3.538 18.4701 4.02767 18.6608 4.591C18.8515 5.14567 18.9468 5.73933 18.9468 6.372C18.9468 7.074 18.8385 7.711 18.6218 8.283C18.4138 8.84633 18.1148 9.33167 17.7248 9.739C17.3348 10.1377 16.8625 10.4497 16.3078 10.675C15.7531 10.8917 15.1335 11 14.4488 11H11.1728ZM17.4648 6.372C17.4648 5.88667 17.3955 5.44033 17.2568 5.033C17.1268 4.62567 16.9318 4.279 16.6718 3.993C16.4118 3.69833 16.0955 3.46867 15.7228 3.304C15.3501 3.13933 14.9255 3.057 14.4488 3.057H12.6288V9.713H14.4488C14.9341 9.713 15.3631 9.63067 15.7358 9.466C16.1171 9.29267 16.4335 9.05867 16.6848 8.764C16.9448 8.46067 17.1398 8.10533 17.2698 7.698C17.3998 7.29067 17.4648 6.84867 17.4648 6.372ZM20.4785 11V1.77H26.6275V3.057H21.9345V5.813H25.8605V7.022H21.9345V11H20.4785Z" fill="#0033A0"/>
<path d="M3.5 20V26H26.5V20" stroke="#0033A0" stroke-width="1.5"/>
<path d="M10.5 19L15.5 24L20.5 19" stroke="#0033A0" stroke-width="1.5"/>
<path d="M15.5 24V13.5" stroke="#0033A0" stroke-width="1.5"/>
</svg>
